<svg id="Logo" xmlns="http://www.w3.org/2000/svg" viewBox="0 0 112.51 31.37"><defs><style>.cls-1{fill:#fe0;}.cls-2{fill:#fff;}</style></defs><title>logo</title><path class="cls-1" d="M58.46,8.29a4.38,4.38,0,0,0-1.24-.84,3.51,3.51,0,0,0-1.48-.31,3.82,3.82,0,0,0-1.54.31,4.26,4.26,0,0,0-1.27.84,3.92,3.92,0,0,0-.85,1.23,3.63,3.63,0,0,0-.31,1.5,3.71,3.71,0,0,0,1.16,2.74,4.18,4.18,0,0,0,1.27.81,4,4,0,0,0,1.54.3,3.66,3.66,0,0,0,1.48-.3,4.29,4.29,0,0,0,1.24-.81A3.71,3.71,0,0,0,59.62,11a3.63,3.63,0,0,0-.31-1.5A3.92,3.92,0,0,0,58.46,8.29Z"/><rect class="cls-1" x="51.9" y="16.02" width="7.6" height="7.6"/><path class="cls-2" d="M17.39,18.73a3.29,3.29,0,0,1-1.62.35,3.89,3.89,0,0,1-1-.12A2.94,2.94,0,0,1,14,18.6a2.76,2.76,0,0,1-.64-.58,1.4,1.4,0,0,1-.29-.76H23.79c0-.18,0-.41.05-.68s0-.54,0-.81a9.88,9.88,0,0,0-.6-3.49,8.25,8.25,0,0,0-1.72-2.79,7.73,7.73,0,0,0-2.66-1.82A8.68,8.68,0,0,0,15.43,7a10,10,0,0,0-3.48.6A8.59,8.59,0,0,0,9.13,9.34a7.89,7.89,0,0,0-1.9,2.71,8.72,8.72,0,0,0-.7,3.57,8.64,8.64,0,0,0,.76,3.74,7.91,7.91,0,0,0,2,2.69,8.51,8.51,0,0,0,2.9,1.62,10.5,10.5,0,0,0,3.38.55,10.41,10.41,0,0,0,4.69-1,7.33,7.33,0,0,0,3.09-2.74l-5-2.52A3,3,0,0,1,17.39,18.73ZM13.7,12.18a2.44,2.44,0,0,1,1.79-.63,2.49,2.49,0,0,1,1.69.54,1.77,1.77,0,0,1,.62,1.4H13A2.3,2.3,0,0,1,13.7,12.18Z"/><path class="cls-2" d="M46.75,4H39.94V7.62H37.72V8.71a12.59,12.59,0,0,0-2.61-1.15A12.84,12.84,0,0,0,31.44,7a9,9,0,0,0-2.33.32,7.51,7.51,0,0,0-2.28,1,5.55,5.55,0,0,0-1.73,1.78,4.85,4.85,0,0,0-.69,2.64,4.26,4.26,0,0,0,.43,2,4.65,4.65,0,0,0,1.08,1.42,5.77,5.77,0,0,0,1.44.92,9.56,9.56,0,0,0,1.55.54,13.42,13.42,0,0,1,2,.56c.38.15.57.36.57.62a.5.5,0,0,1-.32.5,1.77,1.77,0,0,1-.69.14,5,5,0,0,1-1.9-.41A5.93,5.93,0,0,1,26.82,18l-3.44,4a10.89,10.89,0,0,0,3.45,1.69,14.34,14.34,0,0,0,4.06.59,10.56,10.56,0,0,0,2.36-.29A7.33,7.33,0,0,0,35.54,23a5.53,5.53,0,0,0,1.72-1.75,5.06,5.06,0,0,0,.68-2.7,4.51,4.51,0,0,0-.42-2,4.36,4.36,0,0,0-1.14-1.44,6.48,6.48,0,0,0-1.6-1A9.4,9.4,0,0,0,33,13.55a10.59,10.59,0,0,1-1.74-.44c-.26-.11-.38-.27-.38-.47a.52.52,0,0,1,.33-.53A2.29,2.29,0,0,1,32,12a4.5,4.5,0,0,1,1.55.28,6.74,6.74,0,0,1,1.55.76l2.61-3.12v2.75H40v5.71a5.48,5.48,0,0,0,1.55,4.3A7,7,0,0,0,46.29,24a13.85,13.85,0,0,0,2.08-.15,6.37,6.37,0,0,0,1.54-.4v-4.8a5.69,5.69,0,0,1-.58.12,4.32,4.32,0,0,1-.7.06,2.12,2.12,0,0,1-1.38-.41,2,2,0,0,1-.5-1.56V12.64h3.46v-5H46.75Z"/><path class="cls-2" d="M74.93,9.42a5.87,5.87,0,0,0-2.36-1.77A9.73,9.73,0,0,0,68.8,7a11.49,11.49,0,0,0-4.13.76A10,10,0,0,0,61.2,9.94l3.5,3.46a7.79,7.79,0,0,1,1.53-1A4.3,4.3,0,0,1,68.07,12a2.32,2.32,0,0,1,1.33.35,1.23,1.23,0,0,1,.5,1.08v.06a25.77,25.77,0,0,0-3.24.21,11.2,11.2,0,0,0-3,.81,5.82,5.82,0,0,0-2.21,1.64,4.12,4.12,0,0,0-.86,2.72,5.13,5.13,0,0,0,.51,2.4,4.79,4.79,0,0,0,1.32,1.58,5.41,5.41,0,0,0,1.8.89,7.3,7.3,0,0,0,1.93.27,6.44,6.44,0,0,0,2.19-.4,3.33,3.33,0,0,0,1.73-1.3h.06v1.27h6.35V15.19A13.42,13.42,0,0,0,76.14,12,6.67,6.67,0,0,0,74.93,9.42Zm-4.58,8.11a2.25,2.25,0,0,1-.61,1.64,2.09,2.09,0,0,1-1.61.64,2.15,2.15,0,0,1-.53-.07,1.94,1.94,0,0,1-.53-.23,1.45,1.45,0,0,1-.4-.38,1,1,0,0,1-.15-.56,1.25,1.25,0,0,1,1-1.25A7.69,7.69,0,0,1,70,17h.39Z"/><path class="cls-2" d="M104.66,11.71a6.61,6.61,0,0,0-.92-2.17A5.23,5.23,0,0,0,102,7.87a5.34,5.34,0,0,0-2.81-.67,5.71,5.71,0,0,0-2.92.67,6.74,6.74,0,0,0-1.94,1.64,4.23,4.23,0,0,0-1.83-1.75,6.24,6.24,0,0,0-2.73-.56,5.23,5.23,0,0,0-1.52.2A5.81,5.81,0,0,0,87,7.91a7.68,7.68,0,0,0-1,.7,5.34,5.34,0,0,0-.74.78h-.06V7.62H78.32v16h7V15.13a2.44,2.44,0,0,1,.47-1.73,1.39,1.39,0,0,1,1-.49,1.07,1.07,0,0,1,1,.55,3.86,3.86,0,0,1,.3,1.76v8.39h7V15.13a2.77,2.77,0,0,1,.42-1.66,1.27,1.27,0,0,1,1-.56,1.14,1.14,0,0,1,1,.44,3.21,3.21,0,0,1,.32,1.75v8.51h7V13.89A10.27,10.27,0,0,0,104.66,11.71Z"/><polygon class="cls-2" points="18.99 3.43 11.39 4.69 11.39 5.33 18.99 5.33 18.99 3.43"/></svg>